{"title":"Ant-Man.2015.NEW.HDTS.XVID.AC3.HQ.Hive-CM8","uid":12207359,"size":1711370211,"categoryP":"video","categoryS":"movies","magnet":"?xt=urn:btih:f35cd9bf08887d2c9ac06b6ae6528088fbb830c5&amp;dn=Ant-Man.2015.NEW.HDTS.XVID.AC3.HQ.Hive-CM8&amp;tr=udp%3A%2F%2Ftracker.openbittorrent.com%3A80&amp;tr=udp%3A%2F%2Fopen.demonii.com%3A1337&amp;tr=udp%3A%2F%2Ftracker.coppersurfer.tk%3A6969&amp;tr=udp%3A%2F%2Fexodus.desync.com%3A6969","seeders":1,"leechers":0,"uploader":"TvTeam","files":4,"time":1439010198,"description":"------------------------------------------------------------------------\n\n &lt;a href=&quot; https://www.torrenting.com&quot; rel=&quot;nofollow&quot; target=&quot;_NEW&quot;&gt; https://www.torrenting.com&lt;/a&gt;\n\nSign up is OPEN - for time being. Come and have fun\n\n.......................................................................................................................[center][img]http://img912.imageshack.us/img912/5150/MwutUX.jpg[/img]\n\n \n[color=blue][size=4][b]Ant-Man.2015.NEW.HDTS.XVID.AC3.HQ.Hive-CM8[/b][/size][/color]\n\nThx Hive\n\nCM8 Doing It Right The First Time\n\nSources:\n\nVideo: Full New HDCAM from Mustang Thx\nMid and After credit scene from JPz Thx\n\nAudio: Sweet Line Big Thx to S4NDM4N\n\nNotes:\n\nthe cammer from MI5 was so nice to send me his antman source cam too, thx m8\nit has very nice quality, its one single recording, cammed straight,no focus problems,no movements, no heads cut off.\nits perfect as it can be, and nothing is cropped on any side, so full angle.\nit even features the 3min intro movie upfront, which i think i havent seen on any other release so far.\nyep you guessed it no plane scene in this either \noh and Huey, Dewey, and Louie GTFO my uploads \n\nEncode:\n\nvideo was already nice, only slightly fixed perspective and added brightness and sharpness.\nslightly removed a pulsating flicker, and appended the mid-credit scene and the after end credits bonus scene too.\nvideo is now complete\n\nHad Direct Line Audio from S4NDM4n since day 1, but i didnt want to use it for the crappy videos that have been out so far.\nSaved it for later. this one will do just fine.\nLipsynced Audio to Video which was easy, it fitted right on it from start to creds.\nHad Audio also for the creditscenes so they are also perfect now.\n\ngot very nice\nenjoy\n\nVideo: 720x368 @bitrate 1800 2pass\nAudio: English AC3 Direct Line Stereo 2.0\nSample: yes included\n\nPS:\n\nto MI5, there was a bonus intro upfront &quot;the plane scene&quot;\nnoticed too late that it was missing, will fix that. sorry\ni already have the plane scene in hd, but i wanna do a nice complete 720p Version from the Source Files for MI5 asap.\nwill take a day though\nstay tuned\n\nPS2:\n\nneed line audio for pixels, if anyone has it please msg me\nthx\nyou can get full cams you know a cammer that does great quality stuff msg me, together we can make a nice TS\n\n &lt;a href=&quot;\nhttp://www.imdb.com/title/tt0478970/&quot; rel=&quot;nofollow&quot; target=&quot;_NEW&quot;&gt;\nhttp://www.imdb.com/title/tt0478970/&lt;/a&gt;\n\n\nGeneral\nComplete name                  : Ant-Man.2015.NEW.HDTS.XVID.AC3.HQ.Hive-CM8.avi\nFormat                         : AVI\nFormat/Info                    : Audio Video Interleave\nFile size                      : 1.58 GiB\nDuration                       : 1h 48mn\nOverall bit rate               : 2 074 Kbps\nWriting application            : Nandub v1.0rc2\nWriting library                : Nandub build 1853/release\n\nVideo\nID                             : 0\nFormat                         : MPEG-4 Visual\nFormat profile                 : Advanced Simple@L5\nFormat settings, BVOP          : 2\nFormat settings, QPel          : Yes\nFormat settings, GMC           : No warppoints\nFormat settings, Matrix        : Default (H.263)\nMuxing mode                    : Packed bitstream\nCodec ID                       : XVID\nCodec ID/Hint                  : XviD\nDuration                       : 1h 48mn\nBit rate                       : 1 808 Kbps\nWidth                          : 720 pixels\nHeight                         : 368 pixels\nDisplay aspect ratio           : 1.957\nFrame rate                     : 25.000 fps\nColor space                    : YUV\nChroma subsampling             : 4:2:0\nBit depth                      : 8 bits\nScan type                      : Progressive\nCompression mode               : Lossy\nBits/(Pixel*Frame)             : 0.273\nStream size                    : 1.38 GiB (87%)\nWriting library                : XviD 1.2.1 (UTC 2008-12-04)\n\nAudio\nID                             : 1\nFormat                         : AC-3\nFormat/Info                    : Audio Coding 3\nMode extension                 : CM (complete main)\nFormat settings, Endianness    : Big\nCodec ID                       : 2000\nDuration                       : 1h 48mn\nBit rate mode                  : Constant\nBit rate                       : 256 Kbps\nChannel(s)                     : 2 channels\nChannel positions              : Front: L R\nSampling rate                  : 48.0 KHz\nBit depth                      : 16 bits\nCompression mode               : Lossy\nDelay relative to video        : 50ms\nStream size                    : 200 MiB (12%)\nAlignment                      : Split accross interleaves\nInterleave, duration           : 40 ms (1.00 video frame)\nInterleave, preload duration   : 500 ms\n\n\n\nScreens \n\n[img]http://img538.imageshack.us/img538/373/cRxAgW.png[/img]\n[img]http://img538.imageshack.us/img538/6210/it6rpc.png[/img]\n[img]http://img540.imageshack.us/img540/9536/AZwZyz.png[/img]\n[img]http://img537.imageshack.us/img537/2397/LALcm2.png[/img]\n[img]http://img538.imageshack.us/img538/2324/ZN9koa.png[/img]\n[img]http://img673.imageshack.us/img673/199/979pdv.png[/img]\n[img]http://img661.imageshack.us/img661/6716/VfNkSa.png[/img]\n[img]http://img913.imageshack.us/img913/5057/oVfofN.png[/img]\n[img]http://img540.imageshack.us/img540/1831/kVNGqn.png[/img]\n\n\n\nPlot\n\nArmed with a super-suit with the astonishing ability to shrink in scale but increase in strength, \ncat burglar Scott Lang must embrace his inner hero and help his mentor, Dr. Hank Pym, plan and pull off a heist that will save the world.\n\nCast\n\nPaul Rudd \t ... \tScott Lang / Ant-Man\nMichael Douglas  ... \tDr. Hank Pym\nEvangeline Lilly ... \tHope van Dyne\nCorey Stoll \t ... \tDarren Cross / Yellowjacket\nBobby Cannavale  ... \tPaxton\nAnthony Mackie \t ... \tSam Wilson / Falcon \n\n\nGreetz\n\nSugarB,iNCOMiNG,Izzy,MenaceIISociety,jiinx,SiMPLE,CherryBomb\nViSiON,YanKeeS,COPYxRIGHT,THC,VAiN,ACAB,DRs\nLKRG,Kingstoner,ACAB,SiMPLE,TiTAN\nUnevano,BigVik,Rapeseed,SAFC,goldadvance,KaN1vE,Pinnz,Wayne,HiGH\nSeeN,jtr,Limey,ICONiK,TED,rkofan,mrtoke09 (ya whinging old man here ya go lol )\nMr Hive\n\n\nLOOKING FOR ANYTHING YOU WANT TO LOOK AND SOUND BETTER\n\nCOME FIND US WE DONT BITE \n&lt;a class=&quot;__cf_email__&quot; href=&quot;/cdn-cgi/l/email-protection&quot; data-cfemail=&quot;ffbcb2c7bf978a8c97929e9693d1929a&quot;&gt;[email&amp;#160;protected]&lt;/a&gt;&lt;script data-cfhash='f9e31' type=&quot;text/javascript&quot;&gt;\n/* &lt;![CDATA[ */!function(){try{var t=&quot;currentScript&quot;in document?document.currentScript:function(){for(var t=document.getElementsByTagName(&quot;script&quot;),e=t.length;e--;)if(t[e].getAttribute(&quot;data-cfhash&quot;))return t[e]}();if(t&amp;&amp;t.previousSibling){var e,r,n,i,c=t.previousSibling,a=c.getAttribute(&quot;data-cfemail&quot;);if(a){for(e=&quot;&quot;,r=parseInt(a.substr(0,2),16),n=2;a.length-n;n+=2)i=parseInt(a.substr(n,2),16)^r,e+=String.fromCharCode(i);e=document.createTextNode(e),c.parentNode.replaceChild(e,c)}t.parentNode.removeChild(t);}}catch(u){}}()/* ]]&gt; */&lt;/script&gt;[/center]","torrent":{"xt":"urn:btih:f35cd9bf08887d2c9ac06b6ae6528088fbb830c5","amp;dn":"Ant-Man.2015.NEW.HDTS.XVID.AC3.HQ.Hive-CM8","amp;tr":["udp%3A%2F%2Ftracker.openbittorrent.com%3A80","udp%3A%2F%2Fopen.demonii.com%3A1337","udp%3A%2F%2Ftracker.coppersurfer.tk%3A6969","udp%3A%2F%2Fexodus.desync.com%3A6969"],"infoHash":"f35cd9bf08887d2c9ac06b6ae6528088fbb830c5","infoHashBuffer":{"type":"Buffer","data":[243,92,217,191,8,136,125,44,154,192,107,106,230,82,128,136,251,184,48,197]},"announce":[],"urlList":[]}}